<?xml version="1.0" encoding="UTF-8" ?>
<!DOCTYPE svg PUBLIC "-//W3C//DTD SVG 1.1//EN" "http://www.w3.org/Graphics/SVG/1.1/DTD/svg11.dtd">
<svg width="182" height="184" version="1.1" xmlns="http://www.w3.org/2000/svg">
<path style="fill:none; stroke:none;" d="M0 0L0 184L182 184L182 0L0 0z"/>
<path style="fill:#074f8f; stroke:none;" d="M97 97L93 91C83.4565 97.7226 77.0481 108.46 67 114.521C63.6154 116.562 59.9605 117.811 56 117.956C21.9864 119.203 29.838 61.1761 62 73.0941C67.0438 74.9632 71.0915 78.4112 75 82C71.9766 82.0358 62.954 84.3153 68.6042 88.821C71.3013 90.9718 85.6339 92.1533 88.3966 89.9722C91.1233 87.8196 89.881 82.0366 90.1698 79C90.4739 75.8019 92.3181 70.1402 88.6867 68.0864C83.1663 64.9642 83.0104 74.0602 83 77C78.0259 72.2428 72.5531 67.5011 66 65.0934C24.4581 49.8304 7.66766 117.979 50 126.191C54.9801 127.157 60.1335 126.43 65 125.073C71.1107 123.368 76.4697 119.27 81 114.96C86.556 109.674 93.7331 104.005 97 97z"/>
<path style="fill:#137ec2; stroke:none;" d="M98 98C109.564 81.5833 131.612 60.2497 149.895 80.0147C161.53 92.5928 154.215 114.597 137 117.671C125.262 119.766 117.272 111.572 109.576 104.147C107.456 102.102 102.308 99.3993 101.377 104.148C98.9444 116.546 123.665 126.66 133 126.66C169.993 126.66 175.34 70.3235 139 63.4676C123.421 60.5286 112.308 69.6885 102 80C96.7408 85.2612 88.4309 92.6311 98 98z"/>
</svg>
